<svg width="34" height="40" viewBox="0 0 34 40" fill="none" xmlns="http://www.w3.org/2000/svg">
<path fill-rule="evenodd" clip-rule="evenodd" d="M2.20398 16.8048C2.23171 8.64319 8.87045 2.04941 17.032 2.07705C25.1936 2.10487 31.7874 8.74361 31.7597 16.9052V17.0725C31.6592 22.3778 28.697 27.2814 25.0653 31.114C22.9883 33.2708 20.6689 35.1802 18.1533 36.8042C17.4807 37.386 16.4829 37.386 15.8103 36.8042C12.0602 34.3633 8.76877 31.2815 6.08672 27.6998C3.69624 24.5766 2.33902 20.7857 2.20398 16.855V16.8048Z" stroke="#200E32" stroke-width="3.908" stroke-linecap="round" stroke-linejoin="round"/>
<path opacity="0.4" d="M16.9821 21.8254C19.5979 21.8254 21.7184 19.7049 21.7184 17.0892C21.7184 14.4734 19.5979 12.3529 16.9821 12.3529C14.3664 12.3529 12.2459 14.4734 12.2459 17.0892C12.2459 19.7049 14.3664 21.8254 16.9821 21.8254Z" stroke="#200E32" stroke-width="3.908" stroke-linecap="round" stroke-linejoin="round"/>
</svg>
