<svg width="53" height="53" viewBox="0 0 53 53" fill="none" xmlns="http://www.w3.org/2000/svg">
<path d="M6.85721 43.4188H35.2357C35.8144 43.4188 36.3694 43.189 36.7786 42.7798C37.1878 42.3706 37.4176 41.8156 37.4176 41.2369V12.8584C37.4176 12.2797 37.1878 11.7247 36.7786 11.3155C36.3694 10.9063 35.8144 10.6765 35.2357 10.6765H24.3207V12.8584H35.2357V31.4115H24.3207V33.5935H35.2357V41.2343H21.0465V32.5038H18.8645V41.2343H6.85721V27.0476H19.9542V24.8657H16.6799V21.5915H14.498V24.8657H6.85721V12.8584H17.7722V10.6765H6.85721C6.27852 10.6765 5.72354 10.9063 5.31434 11.3155C4.90515 11.7247 4.67526 12.2797 4.67526 12.8584V41.2369C4.67526 41.8156 4.90515 42.3706 5.31434 42.7798C5.72354 43.189 6.27852 43.4188 6.85721 43.4188Z" fill="#747783"/>
<path d="M45.386 39.2929V13.9503L46.7821 15.3464L48.3328 13.8193L44.2937 9.75928L40.2991 13.7538L41.8498 15.3045L43.204 13.9503V39.1829L41.8498 37.8287L40.2991 39.3558L44.3382 43.4158L48.3328 39.4213L46.7821 37.8706L45.386 39.2929Z" fill="#747783"/>
</svg>
