<svg width="26" height="23" viewBox="0 0 26 23" fill="none" xmlns="http://www.w3.org/2000/svg">
<path d="M20.205 14.1096C19.8873 14.4039 19.7413 14.8294 19.8137 15.2467L20.9043 21.0142C20.9963 21.503 20.7804 21.9977 20.3523 22.2802C19.9327 22.5732 19.3745 22.6084 18.9169 22.374L13.4836 19.6661C13.2946 19.5699 13.0849 19.5184 12.8702 19.5125H12.5377C12.4224 19.5289 12.3095 19.5641 12.2065 19.618L6.77191 22.3388C6.50324 22.4677 6.19901 22.5135 5.9009 22.4677C5.17465 22.3365 4.69008 21.6753 4.80908 20.9778L5.9009 15.2104C5.97328 14.7895 5.82729 14.3617 5.50956 14.0627L1.07969 9.95987C0.709209 9.6164 0.580399 9.10061 0.749693 8.63523C0.91408 8.17102 1.33364 7.83224 1.84029 7.75604L7.93734 6.91085C8.40106 6.86513 8.80835 6.59552 9.0169 6.19695L11.7035 0.933565C11.7673 0.816341 11.8495 0.708494 11.9489 0.617059L12.0593 0.535001C12.1169 0.474045 12.1832 0.423638 12.2568 0.382609L12.3905 0.335719L12.5991 0.253662H13.1155C13.5768 0.29938 13.9829 0.563135 14.1951 0.95701L16.9173 6.19695C17.1136 6.58028 17.4951 6.84638 17.9355 6.91085L24.0326 7.75604C24.5478 7.82638 24.9784 8.16633 25.1489 8.63523C25.3096 9.1053 25.171 9.62109 24.7932 9.95987L20.205 14.1096Z" fill="#EEBA00"/>
</svg>
